Exact Audio Copy V0.99 prebeta 4 from 23. January 2008

EAC 抓取日志文件从7. 二月 2013, 14:08

李默 赵云卿 王玉珍 / 中国歌剧歌坛名人1

使用驱动器  ：TEAC    CD-W540E   Adapter: 3  ID: 0

读取模式     : 保护
使用精确流   : 是
废除音频缓冲 : 是
使用 C2 指针 : 否

读取偏移校正                   : 686
读取 Lead-In 和 Lead-Out       : 否
用静音填充抓取中丢失偏移的采样 : 是
去除首尾静音块                 : 否
在 CRC 计算中使用了空样本      : 是
已用接口                       : Win NT 及 2000 本地 Win32 接口

所用输出格式 : 内部 WAV 函数
样本格式     : 44.100 Hz;16 Bit;立体声


被抓轨 CD 的 TOC

     音轨 |   开始   |   长度   | 起始扇区 | 结尾扇区 
    --------------------------------------------------
       1  |  0:00.32 |  3:55.63 |      32  |   17719  
       2  |  3:56.20 |  3:38.17 |   17720  |   34086  
       3  |  7:34.37 |  1:09.70 |   34087  |   39331  
       4  |  8:44.32 |  4:44.00 |   39332  |   60631  
       5  | 13:28.32 |  3:05.73 |   60632  |   74579  
       6  | 16:34.30 |  2:11.07 |   74580  |   84411  
       7  | 18:45.37 |  4:38.15 |   84412  |  105276  
       8  | 23:23.52 |  5:39.70 |  105277  |  130771  
       9  | 29:03.47 |  3:37.68 |  130772  |  147114  
      10  | 32:41.40 | 12:15.02 |  147115  |  202241  
      11  | 44:56.42 | 12:59.38 |  202242  |  260704  


范围状态及错误

已选择范围

     文件名 D:\行板如歌原抓\中国歌剧歌坛名人1.wav

     峰值电平 100.0 %
     范围质量 99.9 %
     复制 CRC 51D01E56
     复制成功

没有错误发生

状态报告结尾
